<?xml version="1.0" standalone="no"?>
<!DOCTYPE svg PUBLIC "-//W3C//DTD SVG 20010904//EN"
 "http://www.w3.org/TR/2001/REC-SVG-20010904/DTD/svg10.dtd">
<svg version="1.0" xmlns="http://www.w3.org/2000/svg"
 width="16.000000pt" height="16.000000pt" viewBox="0 0 16.000000 16.000000"
 preserveAspectRatio="xMidYMid meet">
<metadata>
Created by potrace 1.11, written by Peter Selinger 2001-2013
</metadata>
<g transform="translate(0.000000,16.000000) scale(0.004984,-0.004984)"
fill="#000000" stroke="none">
<path d="M1527 3005 c-1 -2 -31 -5 -67 -9 -443 -43 -852 -320 -1048 -712 -218
-434 -171 -955 124 -1364 166 -231 366 -370 654 -453 99 -29 148 -38 284 -52
62 -7 250 -7 301 -1 157 18 134 22 269 -38 149 -66 318 -124 411 -142 11 -2
31 -6 45 -9 70 -14 111 -18 175 -19 89 0 193 10 223 21 24 9 24 9 -11 36 -110
83 -224 238 -258 349 -11 33 -20 90 -22 127 -2 65 -1 67 56 152 144 216 237
453 263 664 8 70 8 256 0 300 -3 17 -9 50 -12 75 -10 73 -63 228 -111 324
-110 220 -297 434 -482 550 -134 85 -330 161 -466 181 -22 3 -53 8 -70 11 -29
6 -252 13 -258 9z m248 -269 c336 -56 614 -254 770 -549 130 -245 157 -533 74
-789 -59 -181 -208 -430 -322 -538 -28 -27 -33 -49 -17 -78 16 -27 111 -255
108 -258 -2 -1 -41 21 -86 49 -46 29 -91 57 -101 62 -9 6 -40 25 -69 43 -55
36 -53 36 -192 13 -128 -22 -341 -30 -432 -17 -21 4 -53 8 -70 11 -61 8 -202
54 -268 85 -271 132 -475 374 -556 660 -34 121 -42 190 -39 310 4 110 6 126
31 228 58 234 203 442 409 588 135 96 303 163 455 181 25 3 46 6 48 8 4 4 226
-3 257 -9z"/>
<path d="M1573 2690 c-33 -13 -43 -41 -43 -118 0 -83 23 -122 71 -122 34 0 69
31 70 63 4 90 -2 143 -18 158 -24 23 -53 29 -80 19z"/>
<path d="M2025 2261 c-11 -5 -113 -101 -227 -215 -114 -113 -211 -206 -217
-206 -5 0 -28 30 -52 67 -23 37 -47 73 -53 79 -41 41 -99 38 -138 -6 -42 -46
-37 -74 33 -176 142 -205 187 -238 270 -194 12 7 104 96 203 198 100 102 206
211 237 242 83 85 96 134 52 189 -20 24 -77 36 -108 22z"/>
<path d="M673 1782 c-27 -4 -53 -38 -53 -70 0 -12 11 -34 24 -47 21 -21 33
-24 92 -23 38 1 77 3 87 6 17 4 44 47 42 67 -3 30 -19 55 -38 61 -23 8 -117
12 -154 6z"/>
<path d="M2395 1782 c-57 -12 -76 -84 -30 -120 37 -29 152 -30 189 -1 33 26
36 77 6 104 -20 18 -112 28 -165 17z"/>
<path d="M1555 955 c-22 -21 -25 -33 -25 -98 0 -83 14 -111 61 -122 44 -11 78
29 80 90 3 90 -1 111 -21 133 -27 29 -65 28 -95 -3z"/>
</g>
</svg>
